<?xml version="1.0" encoding="UTF-8" standalone="no"?>
<!DOCTYPE svg PUBLIC "-//W3C//DTD SVG 1.1//EN" "http://www.w3.org/Graphics/SVG/1.1/DTD/svg11.dtd">
<svg width="100%" height="100%" viewBox="0 0 3000 4000" version="1.1" xmlns="http://www.w3.org/2000/svg" xmlns:xlink="http://www.w3.org/1999/xlink" xml:space="preserve" xmlns:serif="http://www.serif.com/" style="fill-rule:evenodd;clip-rule:evenodd;stroke-linecap:round;stroke-linejoin:round;stroke-miterlimit:1.5;">
    <g id="Body">
        <g transform="matrix(1,0,0,1,4.05217,-0.0514314)">
            <path d="M2948.2,194.077C2948.2,113.925 2883.13,48.852 2802.97,48.852L188.922,48.852C108.77,48.852 43.696,113.925 43.696,194.077L43.696,3806.03C43.696,3886.18 108.77,3951.25 188.922,3951.25L2802.97,3951.25C2883.13,3951.25 2948.2,3886.18 2948.2,3806.03L2948.2,194.077Z" style="fill:rgb(10,135,84);"/>
        </g>
        <g transform="matrix(0.945636,0,0,0.960421,83.3776,77.1084)">
            <path d="M2948.2,191.841C2948.2,112.923 2883.13,48.852 2802.97,48.852L188.922,48.852C108.77,48.852 43.696,112.923 43.696,191.841L43.696,3808.26C43.696,3887.18 108.77,3951.25 188.922,3951.25L2802.97,3951.25C2883.13,3951.25 2948.2,3887.18 2948.2,3808.26L2948.2,191.841Z" style="fill:rgb(0,79,45);"/>
        </g>
    </g>
    <g transform="matrix(1.06388,0,0,1.06388,-213.022,-160.891)">
        <circle cx="1610.16" cy="2031.14" r="810.393" style="fill:white;stroke:rgb(191,215,237);stroke-width:39.16px;"/>
    </g>
    <g id="Text">
        <g transform="matrix(1.33924,0,0,1.33924,963.096,951.382)">
            <circle cx="910.126" cy="1302.73" r="253.63" style="fill:rgb(0,79,45);stroke:rgb(191,215,237);stroke-width:31.11px;"/>
        </g>
        <g transform="matrix(1.33924,0,0,1.33924,-403.164,951.382)">
            <circle cx="910.126" cy="1302.73" r="253.63" style="fill:rgb(0,79,45);stroke:rgb(191,215,237);stroke-width:31.11px;"/>
        </g>
        <g transform="matrix(1.33924,0,0,1.33924,963.096,-438.11)">
            <circle cx="910.126" cy="1302.73" r="253.63" style="fill:rgb(0,79,45);stroke:rgb(191,215,237);stroke-width:31.11px;"/>
        </g>
        <g transform="matrix(1.33924,0,0,1.33924,-403.164,-438.11)">
            <circle cx="910.126" cy="1302.73" r="253.63" style="fill:rgb(0,79,45);stroke:rgb(191,215,237);stroke-width:31.11px;"/>
        </g>
    </g>
</svg>
