<?xml version="1.0" encoding="UTF-8" standalone="no"?>
<!DOCTYPE svg PUBLIC "-//W3C//DTD SVG 1.1//EN" "http://www.w3.org/Graphics/SVG/1.1/DTD/svg11.dtd">
<svg width="100%" height="100%" viewBox="0 0 3000 4000" version="1.1" xmlns="http://www.w3.org/2000/svg" xmlns:xlink="http://www.w3.org/1999/xlink" xml:space="preserve" xmlns:serif="http://www.serif.com/" style="fill-rule:evenodd;clip-rule:evenodd;stroke-linecap:round;stroke-linejoin:round;stroke-miterlimit:1.5;">
    <g transform="matrix(1,0,0,1,4.05217,-0.0514314)">
        <path d="M2948.2,194.077C2948.2,113.925 2883.13,48.852 2802.97,48.852L188.922,48.852C108.77,48.852 43.696,113.925 43.696,194.077L43.696,3806.03C43.696,3886.18 108.77,3951.25 188.922,3951.25L2802.97,3951.25C2883.13,3951.25 2948.2,3886.18 2948.2,3806.03L2948.2,194.077Z" style="fill:rgb(0,116,183);"/>
    </g>
    <g transform="matrix(0.945636,0,0,0.960421,83.3776,77.1084)">
        <path d="M2948.2,191.841C2948.2,112.923 2883.13,48.852 2802.97,48.852L188.922,48.852C108.77,48.852 43.696,112.923 43.696,191.841L43.696,3808.26C43.696,3887.18 108.77,3951.25 188.922,3951.25L2802.97,3951.25C2883.13,3951.25 2948.2,3887.18 2948.2,3808.26L2948.2,191.841Z" style="fill:rgb(0,59,115);"/>
    </g>
    <g>
        <g transform="matrix(1.11022e-16,1,-1,1.11022e-16,3349.5,417.714)">
            <rect x="843.958" y="1111.17" width="1476.66" height="1476.66" style="fill:white;"/>
            <clipPath id="_clip1">
                <rect x="843.958" y="1111.17" width="1476.66" height="1476.66"/>
            </clipPath>
            <g clip-path="url(#_clip1)">
                <g transform="matrix(0.707107,-0.707107,0.707107,0.707107,-880.525,1513.9)">
                    <rect x="1048.53" y="743.023" width="900.994" height="487.598" style="fill:rgb(0,116,183);"/>
                </g>
                <g transform="matrix(0.707107,-0.707107,0.707107,0.707107,566.681,2868.61)">
                    <rect x="1048.53" y="743.023" width="900.994" height="487.598" style="fill:rgb(0,116,183);"/>
                </g>
                <g transform="matrix(0.707107,0.707107,-0.707107,0.707107,442.08,714.687)">
                    <rect x="1048.53" y="743.023" width="900.994" height="487.598" style="fill:rgb(0,116,183);"/>
                </g>
                <g transform="matrix(0.707107,0.707107,-0.707107,0.707107,1928.93,-604.224)">
                    <rect x="1048.53" y="743.023" width="900.994" height="487.598" style="fill:rgb(0,116,183);"/>
                </g>
            </g>
            <rect x="843.958" y="1111.17" width="1476.66" height="1476.66" style="fill:none;stroke:rgb(191,215,237);stroke-width:20.83px;"/>
        </g>
        <g transform="matrix(0.707107,0.707107,-0.707107,0.707107,1688.95,-426.638)">
            <rect x="843.958" y="1111.17" width="1476.66" height="1476.66" style="fill:none;"/>
            <clipPath id="_clip2">
                <rect x="843.958" y="1111.17" width="1476.66" height="1476.66"/>
            </clipPath>
            <g clip-path="url(#_clip2)">
                <g transform="matrix(0.707107,-0.707107,0.707107,0.707107,-877.707,1510.07)">
                    <rect x="1048.53" y="743.023" width="900.994" height="487.598" style="fill:rgb(0,116,183);"/>
                </g>
                <g transform="matrix(0.707107,-0.707107,0.707107,0.707107,524.962,2912.73)">
                    <rect x="1048.53" y="743.023" width="900.994" height="487.598" style="fill:rgb(0,116,183);"/>
                </g>
                <g transform="matrix(0.707107,0.707107,-0.707107,0.707107,1900.95,-630.501)">
                    <rect x="1048.53" y="743.023" width="900.994" height="487.598" style="fill:rgb(0,116,183);"/>
                </g>
                <g transform="matrix(-0.707107,-0.707107,0.707107,-0.707107,1263.42,4324.39)">
                    <rect x="1048.53" y="743.023" width="900.994" height="487.598" style="fill:rgb(0,116,183);"/>
                </g>
            </g>
            <rect x="843.958" y="1111.17" width="1476.66" height="1476.66" style="fill:none;stroke:rgb(191,215,237);stroke-width:20.83px;"/>
        </g>
        <g transform="matrix(0.830669,0.556767,-0.556767,0.830669,1432.22,-457.796)">
            <path d="M1417.12,1394.76L1588.85,1758.66L1988.01,1809.53L1694.99,2085.31L1769.95,2480.66L1417.12,2287.2L1064.29,2480.66L1139.25,2085.31L846.232,1809.53L1245.39,1758.66L1417.12,1394.76Z" style="fill:rgb(96,163,217);"/>
        </g>
        <g transform="matrix(1,0,0,1,82.8788,22.8556)">
            <path d="M1417.12,1394.76L1588.85,1758.66L1988.01,1809.53L1694.99,2085.31L1769.95,2480.66L1417.12,2287.2L1064.29,2480.66L1139.25,2085.31L846.232,1809.53L1245.39,1758.66L1417.12,1394.76Z" style="fill:rgb(191,215,237);"/>
        </g>
        <g transform="matrix(1,0,0,1,15.7571,-33.6415)">
            <path d="M1578.43,1880.81C1482.56,1880.81 1404.73,1958.64 1404.73,2054.5C1404.73,2150.37 1482.56,2228.2 1578.43,2228.2C1506.78,2213.57 1448.61,2140.78 1448.61,2054.5C1448.61,1968.23 1506.78,1895.43 1578.43,1880.81Z" style="fill:white;"/>
        </g>
    </g>
</svg>
