<?xml version="1.0" encoding="UTF-8" standalone="no"?>
<!DOCTYPE svg PUBLIC "-//W3C//DTD SVG 1.1//EN" "http://www.w3.org/Graphics/SVG/1.1/DTD/svg11.dtd">
<svg width="100%" height="100%" viewBox="0 0 3000 4000" version="1.1" xmlns="http://www.w3.org/2000/svg" xmlns:xlink="http://www.w3.org/1999/xlink" xml:space="preserve" xmlns:serif="http://www.serif.com/" style="fill-rule:evenodd;clip-rule:evenodd;stroke-linecap:round;stroke-linejoin:round;stroke-miterlimit:1.5;">
    <g id="Body">
        <g transform="matrix(1,0,0,1,4.05217,-0.0514314)">
            <path d="M2948.2,194.077C2948.2,113.925 2883.13,48.852 2802.97,48.852L188.922,48.852C108.77,48.852 43.696,113.925 43.696,194.077L43.696,3806.03C43.696,3886.18 108.77,3951.25 188.922,3951.25L2802.97,3951.25C2883.13,3951.25 2948.2,3886.18 2948.2,3806.03L2948.2,194.077Z" style="fill:rgb(253,214,78);"/>
        </g>
        <g transform="matrix(0.945636,0,0,0.960421,83.3776,77.1084)">
            <path d="M2948.2,191.841C2948.2,112.923 2883.13,48.852 2802.97,48.852L188.922,48.852C108.77,48.852 43.696,112.923 43.696,191.841L43.696,3808.26C43.696,3887.18 108.77,3951.25 188.922,3951.25L2802.97,3951.25C2883.13,3951.25 2948.2,3887.18 2948.2,3808.26L2948.2,191.841Z" style="fill:rgb(225,154,2);"/>
        </g>
    </g>
    <g transform="matrix(1.17736,0,0,1.17736,-395.751,-391.395)">
        <circle cx="1610.16" cy="2031.14" r="810.393" style="fill:white;stroke:rgb(191,215,237);stroke-width:17.69px;"/>
    </g>
    <g transform="matrix(1.05925,0,0,1.05925,-205.567,-159.044)">
        <circle cx="1610.16" cy="2031.14" r="810.393" style="fill:rgb(225,154,2);stroke:rgb(191,215,237);stroke-width:19.67px;"/>
    </g>
    <g transform="matrix(0.838983,0,0,1.06184,386.864,200.325)">
        <path d="M1315.2,810.141L2183.17,2150.37L447.23,2150.37L1315.2,810.141Z" style="fill:white;"/>
        <path d="M1337.31,801.204C1333.06,794.647 1324.52,790.521 1315.2,790.521C1305.88,790.521 1297.34,794.647 1293.1,801.204L425.124,2141.43C421.185,2147.51 421.535,2154.77 426.046,2160.6C430.558,2166.43 438.583,2169.99 447.23,2169.99L2183.17,2169.99C2191.82,2169.99 2199.84,2166.43 2204.36,2160.6C2208.87,2154.77 2209.22,2147.51 2205.28,2141.43L1337.31,801.204ZM1315.2,810.141L2183.17,2150.37L447.23,2150.37L1315.2,810.141Z" style="fill:rgb(191,215,237);"/>
    </g>
    <g transform="matrix(1.43042,0,0,1.43042,-241.513,-1134.02)">
        <circle cx="727.361" cy="2513.06" r="244.457" style="fill:white;"/>
        <path d="M727.361,2268.6C862.28,2268.6 971.818,2378.14 971.818,2513.06C971.818,2647.98 862.28,2757.51 727.361,2757.51C592.441,2757.51 482.904,2647.98 482.904,2513.06C482.904,2378.14 592.441,2268.6 727.361,2268.6ZM727.361,2283.16C854.242,2283.16 957.253,2386.18 957.253,2513.06C957.253,2639.94 854.242,2742.95 727.361,2742.95C600.48,2742.95 497.468,2639.94 497.468,2513.06C497.468,2386.18 600.48,2283.16 727.361,2283.16Z" style="fill:rgb(191,215,237);"/>
    </g>
    <g transform="matrix(1.02464,0,0,1.02464,54.0479,-120.308)">
        <circle cx="727.361" cy="2513.06" r="244.457" style="fill:rgb(225,154,2);"/>
        <path d="M727.361,2268.6C862.28,2268.6 971.818,2378.14 971.818,2513.06C971.818,2647.98 862.28,2757.51 727.361,2757.51C592.441,2757.51 482.904,2647.98 482.904,2513.06C482.904,2378.14 592.441,2268.6 727.361,2268.6ZM727.361,2288.93C851.059,2288.93 951.485,2389.36 951.485,2513.06C951.485,2636.76 851.059,2737.18 727.361,2737.18C603.663,2737.18 503.236,2636.76 503.236,2513.06C503.236,2389.36 603.663,2288.93 727.361,2288.93Z" style="fill:rgb(191,215,237);"/>
    </g>
    <g transform="matrix(1.43042,0,0,1.43042,1151.31,-1134.02)">
        <circle cx="727.361" cy="2513.06" r="244.457" style="fill:white;"/>
        <path d="M727.361,2268.6C862.28,2268.6 971.818,2378.14 971.818,2513.06C971.818,2647.98 862.28,2757.51 727.361,2757.51C592.441,2757.51 482.904,2647.98 482.904,2513.06C482.904,2378.14 592.441,2268.6 727.361,2268.6ZM727.361,2283.16C854.242,2283.16 957.253,2386.18 957.253,2513.06C957.253,2639.94 854.242,2742.95 727.361,2742.95C600.48,2742.95 497.468,2639.94 497.468,2513.06C497.468,2386.18 600.48,2283.16 727.361,2283.16Z" style="fill:rgb(191,215,237);"/>
    </g>
    <g transform="matrix(1.43042,0,0,1.43042,459.565,-2498.95)">
        <circle cx="727.361" cy="2513.06" r="244.457" style="fill:white;"/>
        <path d="M727.361,2268.6C862.28,2268.6 971.818,2378.14 971.818,2513.06C971.818,2647.98 862.28,2757.51 727.361,2757.51C592.441,2757.51 482.904,2647.98 482.904,2513.06C482.904,2378.14 592.441,2268.6 727.361,2268.6ZM727.361,2283.16C854.242,2283.16 957.253,2386.18 957.253,2513.06C957.253,2639.94 854.242,2742.95 727.361,2742.95C600.48,2742.95 497.468,2639.94 497.468,2513.06C497.468,2386.18 600.48,2283.16 727.361,2283.16Z" style="fill:rgb(191,215,237);"/>
    </g>
    <g transform="matrix(1.02464,0,0,1.02464,1449.07,-120.308)">
        <circle cx="727.361" cy="2513.06" r="244.457" style="fill:rgb(225,154,2);"/>
        <path d="M727.361,2268.6C862.28,2268.6 971.818,2378.14 971.818,2513.06C971.818,2647.98 862.28,2757.51 727.361,2757.51C592.441,2757.51 482.904,2647.98 482.904,2513.06C482.904,2378.14 592.441,2268.6 727.361,2268.6ZM727.361,2288.93C851.059,2288.93 951.485,2389.36 951.485,2513.06C951.485,2636.76 851.059,2737.18 727.361,2737.18C603.663,2737.18 503.236,2636.76 503.236,2513.06C503.236,2389.36 603.663,2288.93 727.361,2288.93Z" style="fill:rgb(191,215,237);"/>
    </g>
    <g transform="matrix(1.02464,0,0,1.02464,747.926,-1486.88)">
        <circle cx="727.361" cy="2513.06" r="244.457" style="fill:rgb(225,154,2);"/>
        <path d="M727.361,2268.6C862.28,2268.6 971.818,2378.14 971.818,2513.06C971.818,2647.98 862.28,2757.51 727.361,2757.51C592.441,2757.51 482.904,2647.98 482.904,2513.06C482.904,2378.14 592.441,2268.6 727.361,2268.6ZM727.361,2288.93C851.059,2288.93 951.485,2389.36 951.485,2513.06C951.485,2636.76 851.059,2737.18 727.361,2737.18C603.663,2737.18 503.236,2636.76 503.236,2513.06C503.236,2389.36 603.663,2288.93 727.361,2288.93Z" style="fill:rgb(191,215,237);"/>
    </g>
</svg>
