<?xml version="1.0" encoding="UTF-8" standalone="no"?>
<!DOCTYPE svg PUBLIC "-//W3C//DTD SVG 1.1//EN" "http://www.w3.org/Graphics/SVG/1.1/DTD/svg11.dtd">
<svg width="100%" height="100%" viewBox="0 0 3000 4000" version="1.1" xmlns="http://www.w3.org/2000/svg" xmlns:xlink="http://www.w3.org/1999/xlink" xml:space="preserve" xmlns:serif="http://www.serif.com/" style="fill-rule:evenodd;clip-rule:evenodd;stroke-linecap:round;stroke-linejoin:round;stroke-miterlimit:1.5;">
    <g id="Body">
        <g transform="matrix(1,0,0,1,4.05217,-0.0514314)">
            <path d="M2948.2,194.077C2948.2,113.925 2883.13,48.852 2802.97,48.852L188.922,48.852C108.77,48.852 43.696,113.925 43.696,194.077L43.696,3806.03C43.696,3886.18 108.77,3951.25 188.922,3951.25L2802.97,3951.25C2883.13,3951.25 2948.2,3886.18 2948.2,3806.03L2948.2,194.077Z" style="fill:rgb(218,52,77);"/>
        </g>
        <g transform="matrix(0.945636,0,0,0.960421,83.3776,77.1084)">
            <path d="M2948.2,191.841C2948.2,112.923 2883.13,48.852 2802.97,48.852L188.922,48.852C108.77,48.852 43.696,112.923 43.696,191.841L43.696,3808.26C43.696,3887.18 108.77,3951.25 188.922,3951.25L2802.97,3951.25C2883.13,3951.25 2948.2,3887.18 2948.2,3808.26L2948.2,191.841Z" style="fill:rgb(154,21,39);"/>
        </g>
    </g>
    <g transform="matrix(1.22696,-0.708388,0.708388,1.22696,-1347.35,998.847)">
        <path d="M1383.75,991.307L1930.6,1307.03L1930.6,1938.48L1383.75,2254.21L836.897,1938.48L836.897,1307.03L1383.75,991.307Z" style="fill:white;stroke:rgb(191,215,237);stroke-width:29.41px;"/>
    </g>
    <g transform="matrix(1,0,0,0.814484,864.9,712.38)">
        <path d="M635.1,2283.81L958.74,2931.09L311.46,2931.09L635.1,2283.81Z" style="fill:rgb(154,21,39);stroke:rgb(191,215,237);stroke-width:45.69px;"/>
    </g>
    <g transform="matrix(-1,1.22465e-16,-9.97455e-17,-0.814484,2135.1,3347.15)">
        <path d="M635.1,2283.81L958.74,2931.09L311.46,2931.09L635.1,2283.81Z" style="fill:rgb(154,21,39);stroke:rgb(191,215,237);stroke-width:45.69px;"/>
    </g>
    <g transform="matrix(-0.5,-0.866025,0.705364,-0.407242,637.36,3191.51)">
        <path d="M635.1,2283.81L958.74,2931.09L311.46,2931.09L635.1,2283.81Z" style="fill:rgb(154,21,39);stroke:rgb(191,215,237);stroke-width:45.69px;"/>
    </g>
    <g transform="matrix(0.5,-0.866025,0.705364,0.407242,-22.3229,1856.85)">
        <path d="M635.1,2283.81L958.74,2931.09L311.46,2931.09L635.1,2283.81Z" style="fill:rgb(154,21,39);stroke:rgb(191,215,237);stroke-width:45.69px;"/>
    </g>
    <g transform="matrix(0.5,0.866025,-0.705364,0.407242,2350.65,756.828)">
        <path d="M635.1,2283.81L958.74,2931.09L311.46,2931.09L635.1,2283.81Z" style="fill:rgb(154,21,39);stroke:rgb(191,215,237);stroke-width:45.69px;"/>
    </g>
    <g transform="matrix(-0.5,0.866025,-0.705364,-0.407242,3010.33,2091.48)">
        <path d="M635.1,2283.81L958.74,2931.09L311.46,2931.09L635.1,2283.81Z" style="fill:rgb(154,21,39);stroke:rgb(191,215,237);stroke-width:45.69px;"/>
    </g>
</svg>
