# Blender v2.90.1 OBJ File: ''
# www.blender.org
mtllib Treasure_Chest_Base_03.mtl
o Treasure_Chest_Base_02
v -0.109715 0.516975 -0.393169
v 0.109708 0.516975 -0.393169
v -0.109715 0.330397 -0.393169
v 0.109708 0.330397 -0.393169
v 0.061863 0.285938 -0.393169
v -0.061870 0.285938 -0.393169
v -0.069176 0.273913 -0.312202
v -0.122671 0.321396 -0.312202
v 0.122664 0.321396 -0.312202
v 0.122664 0.530008 -0.312202
v -0.122671 0.530008 -0.312202
v 0.069168 0.273913 -0.312202
v -0.444330 0.440425 0.298691
v -0.444332 0.440425 -0.283180
v -0.444332 -0.002129 -0.283180
v -0.444330 -0.002129 0.298691
v -0.342066 0.440425 -0.314617
v -0.342066 -0.002129 -0.314617
v 0.444330 0.440425 -0.283180
v 0.444332 0.440425 0.298691
v 0.444332 -0.002129 0.298691
v 0.444330 -0.002129 -0.283180
v -0.342062 0.440425 0.330128
v -0.342062 -0.002129 0.330128
v 0.342062 0.440425 -0.314617
v 0.342062 -0.002129 -0.314617
v 0.342065 -0.002129 0.330128
v 0.342065 0.440425 0.330128
v -0.378383 0.056993 0.255510
v 0.378385 0.056993 0.255510
v 0.378383 0.056993 -0.240000
v -0.378385 0.056993 -0.240000
v 0.378385 0.440425 0.255510
v -0.378383 0.440425 0.255510
v 0.378383 0.440425 -0.240000
v -0.378385 0.440425 -0.240000
v -0.339799 0.484896 0.361456
v -0.339799 0.441885 0.393167
v -0.122690 0.441885 0.393167
v -0.122690 0.484896 0.361456
v -0.339799 0.398434 0.362061
v -0.122690 0.398434 0.362061
v -0.339799 0.414593 0.311123
v -0.122690 0.414593 0.311123
v -0.339799 0.468029 0.310751
v -0.122690 0.468029 0.310751
v 0.121628 0.484896 0.361456
v 0.121628 0.441885 0.393167
v 0.338737 0.441885 0.393167
v 0.338737 0.484896 0.361456
v 0.121628 0.398434 0.362061
v 0.338737 0.398434 0.362061
v 0.121628 0.414593 0.311123
v 0.338737 0.414593 0.311123
v 0.121628 0.468029 0.310751
v 0.338737 0.468029 0.310751
vt 0.739783 0.850704
vt 0.739783 0.868838
vt 0.761108 0.850704
vt 0.761108 0.868838
vt 0.744433 0.872966
vt 0.756458 0.872966
vt 0.572133 0.578143
vt 0.688600 0.578143
vt 0.688600 0.489794
vt 0.572133 0.489794
vt 0.866282 0.578317
vt 0.845826 0.578317
vt 0.845826 0.489794
vt 0.866282 0.489794
vt 0.688600 0.578317
vt 0.572133 0.578317
vt 0.572133 0.489794
vt 0.688600 0.489794
vt 0.708981 0.578472
vt 0.688600 0.578472
vt 0.688600 0.489425
vt 0.708981 0.489425
vt 0.589522 0.910402
vt 0.572301 0.910402
vt 0.572301 0.812820
vt 0.589522 0.812820
vt 0.708981 0.578317
vt 0.708981 0.489794
vt 0.721895 0.910402
vt 0.705027 0.910402
vt 0.705027 0.812820
vt 0.721895 0.812820
vt 0.866282 0.578472
vt 0.845826 0.578472
vt 0.845826 0.489425
vt 0.866282 0.489425
vt 0.721895 0.910402
vt 0.572301 0.910402
vt 0.572301 0.812820
vt 0.721895 0.812820
vt 0.961416 0.853455
vt 0.825570 0.853455
vt 0.819902 0.838760
vt 0.968198 0.838760
vt 0.806914 0.847265
vt 0.806915 0.734156
vt 0.819903 0.742660
vt 0.827055 0.727223
vt 0.961417 0.727223
vt 0.968198 0.742660
vt 0.980816 0.736013
vt 0.980816 0.847264
vt 0.721895 0.985912
vt 0.572301 0.985912
vt 0.721895 0.985912
vt 0.819481 0.985912
vt 0.819481 0.910402
vt 0.721895 0.910402
vt 0.722186 0.985825
vt 0.572301 0.985825
vt 0.572301 0.910402
vt 0.721895 0.910402
vt 0.819481 0.985912
vt 0.819481 0.910402
vt 0.738295 0.854076
vt 0.738296 0.867737
vt 0.792405 0.867738
vt 0.792404 0.854075
vt 0.738295 0.881399
vt 0.792405 0.881399
vt 0.738296 0.895061
vt 0.792405 0.895061
vt 0.738297 0.826753
vt 0.738296 0.840416
vt 0.792404 0.840415
vt 0.792405 0.826754
vt 0.786437 0.871986
vt 0.786536 0.861391
vt 0.776491 0.858023
vt 0.776332 0.875166
vt 0.770182 0.866537
vt 0.776332 0.875166
vt 0.770182 0.866537
vt 0.786437 0.871986
vt 0.776491 0.858023
vt 0.786536 0.861391
vt 0.738295 0.854076
vt 0.738296 0.867737
vt 0.792405 0.867738
vt 0.792404 0.854075
vt 0.738295 0.881399
vt 0.792405 0.881399
vt 0.738296 0.895061
vt 0.792405 0.895061
vt 0.738297 0.826753
vt 0.738296 0.840416
vt 0.792404 0.840415
vt 0.792405 0.826754
vt 0.786437 0.871986
vt 0.786536 0.861391
vt 0.776491 0.858023
vt 0.776332 0.875166
vt 0.770182 0.866537
vt 0.776332 0.875166
vt 0.770182 0.866537
vt 0.786437 0.871986
vt 0.776491 0.858023
vt 0.786536 0.861391
vt 0.904428 0.975290
vt 0.855189 0.975290
vt 0.904428 0.933420
vt 0.855189 0.933420
vt 0.865924 0.923443
vt 0.893691 0.923443
vt 0.901771 0.908823
vt 0.918757 0.923899
vt 0.840859 0.923899
vt 0.840859 0.990138
vt 0.918757 0.990138
vt 0.857846 0.908823
vn 0.0000 -0.0000 1.0000
vn -1.0000 0.0000 0.0000
vn -0.2938 0.0000 -0.9559
vn 1.0000 0.0000 -0.0000
vn -0.2938 -0.0000 0.9559
vn 0.0000 -1.0000 -0.0000
vn 0.2938 0.0000 -0.9559
vn 0.2938 -0.0000 0.9559
vn 0.0000 0.0000 -1.0000
vn 0.0000 1.0000 0.0000
vn 0.0000 0.9532 0.3024
vn 0.0000 0.0070 1.0000
vn -0.0003 0.0070 1.0000
vn 0.0000 -0.9489 0.3157
vn 0.0000 -0.9489 0.3156
vn 0.0000 -0.5934 -0.8049
vn 0.0000 0.5821 -0.8131
vn 0.0002 0.0070 1.0000
vn -0.6104 0.6103 -0.5050
vn 0.5954 0.2977 -0.7462
vn -0.4381 -0.2762 -0.8554
vn 0.6227 -0.3926 -0.6769
vn 0.1806 -0.7269 -0.6626
vn -0.2969 -0.7572 -0.5817
vn -0.3541 -0.9190 -0.1733
vn -0.9471 -0.2649 -0.1810
vn 0.9471 -0.2649 -0.1810
vn 0.4372 0.8743 -0.2107
vn -0.6894 0.6897 -0.2213
vn 0.4683 -0.8656 -0.1772
usemtl Default_OBJ
s off
f 11/1/1 8/2/1 10/3/1
f 10/3/1 8/2/1 9/4/1
f 8/2/1 7/5/1 9/4/1
f 7/5/1 12/6/1 9/4/1
f 13/7/2 14/8/2 15/9/2 16/10/2
f 14/11/3 17/12/3 18/13/3 15/14/3
f 19/15/4 20/16/4 21/17/4 22/18/4
f 23/19/5 13/20/5 16/21/5 24/22/5
f 24/23/6 16/24/6 15/25/6 18/26/6
f 25/27/7 19/15/7 22/18/7 26/28/7
f 21/29/6 27/30/6 26/31/6 22/32/6
f 20/33/8 28/34/8 27/35/8 21/36/8
f 26/28/9 18/13/9 17/12/9 25/27/9
f 24/23/6 18/26/6 26/31/6 27/30/6
f 28/34/1 23/19/1 24/22/1 27/35/1
f 29/37/10 30/38/10 31/39/10 32/40/10
f 23/41/10 28/42/10 33/43/10 34/44/10
f 28/42/10 20/45/10 33/43/10
f 20/45/10 19/46/10 35/47/10 33/43/10
f 19/46/10 25/48/10 35/47/10
f 25/48/10 17/49/10 36/50/10 35/47/10
f 17/49/10 14/51/10 36/50/10
f 14/51/10 13/52/10 34/44/10 36/50/10
f 13/52/10 23/41/10 34/44/10
f 34/53/9 33/54/9 30/38/9 29/37/9
f 33/55/2 35/56/2 31/57/2 30/58/2
f 35/59/1 36/60/1 32/61/1 31/62/1
f 36/63/4 34/53/4 29/37/4 32/64/4
f 37/65/11 38/66/12 39/67/13 40/68/11
f 38/66/12 41/69/14 42/70/14 39/67/12
f 41/69/15 43/71/16 44/72/16 42/70/15
f 43/73/16 45/74/17 46/75/17 44/76/16
f 45/74/17 37/65/11 40/68/11 46/75/17
f 38/77/2 37/78/2 45/79/2
f 41/80/2 38/77/2 45/79/2
f 43/81/2 41/80/2 45/79/2
f 42/82/4 44/83/4 39/84/4
f 44/83/4 46/85/4 39/84/4
f 46/85/4 40/86/4 39/84/4
f 47/87/11 48/88/12 49/89/12 50/90/11
f 48/88/18 51/91/14 52/92/14 49/89/12
f 51/91/15 53/93/16 54/94/16 52/92/15
f 53/95/16 55/96/17 56/97/17 54/98/16
f 55/96/17 47/87/11 50/90/11 56/97/17
f 48/99/2 47/100/2 55/101/2
f 51/102/2 48/99/2 55/101/2
f 53/103/2 51/102/2 55/101/2
f 52/104/4 54/105/4 49/106/4
f 54/105/4 56/107/4 49/106/4
f 56/107/4 50/108/4 49/106/4
s 1
f 1/109/19 2/110/20 3/111/21
f 2/110/20 4/112/22 3/111/21
f 4/112/22 5/113/23 3/111/21
f 5/113/23 6/114/24 3/111/21
f 6/114/24 7/115/25 3/111/21
f 3/111/21 7/115/25 8/116/26
f 4/112/22 2/110/20 9/117/27
f 9/117/27 2/110/20 10/118/28
f 3/111/21 8/116/26 1/109/19
f 1/109/19 8/116/26 11/119/29
f 2/110/20 1/109/19 10/118/28
f 10/118/28 1/109/19 11/119/29
f 12/120/30 7/115/25 5/113/23
f 5/113/23 7/115/25 6/114/24
f 5/113/23 4/112/22 12/120/30
f 12/120/30 4/112/22 9/117/27
