# Blender v2.90.1 OBJ File: ''
# www.blender.org
mtllib Treasure_Chest_lid_01.mtl
o Treasure_Chest_lid_01
v -0.342065 0.295616 -0.528053
v -0.342066 0.141478 -0.660395
v -0.444332 0.122326 -0.628958
v -0.444332 0.261434 -0.509521
v -0.342064 0.351520 -0.338023
v -0.444332 0.311886 -0.338024
v -0.444331 0.261435 -0.166522
v -0.342063 0.295619 -0.147991
v -0.444330 0.122330 -0.047088
v -0.342062 0.141482 -0.015651
v 0.444331 0.261435 -0.166522
v 0.342064 0.295619 -0.147991
v 0.342065 0.141482 -0.015651
v 0.444332 0.122330 -0.047088
v 0.444330 0.311886 -0.338024
v 0.342064 0.351520 -0.338023
v 0.444330 0.261434 -0.509521
v 0.342062 0.295616 -0.528053
v 0.444330 0.122326 -0.628958
v 0.342062 0.141478 -0.660395
v -0.444332 0.001015 -0.628958
v -0.444330 0.001018 -0.047087
v -0.342066 0.001015 -0.660395
v 0.342062 0.001015 -0.660395
v 0.444330 0.001015 -0.628958
v 0.444332 0.001018 -0.047087
v 0.342065 0.001018 -0.015651
v -0.342062 0.001018 -0.015651
v 0.328481 0.160996 -0.162846
v -0.328479 0.160996 -0.162846
v -0.298193 0.230807 -0.339827
v 0.298193 0.230807 -0.339827
v -0.377430 0.001017 -0.092888
v -0.377432 0.001015 -0.583157
v 0.377430 0.001015 -0.583157
v 0.377432 0.001017 -0.092888
v -0.328481 0.160994 -0.515995
v 0.328479 0.160994 -0.515995
vt 0.127296 0.376969
vt 0.130552 0.380762
vt 0.135228 0.382137
vt 0.139904 0.380762
vt 0.143161 0.376969
vt 0.143161 0.373661
vt 0.127296 0.373661
vt 0.142414 0.377107
vt 0.138941 0.381151
vt 0.133954 0.382619
vt 0.128967 0.381151
vt 0.125494 0.377107
vt 0.125494 0.373579
vt 0.142414 0.373579
vt 0.142234 0.374293
vt 0.142234 0.381618
vt 0.140426 0.380317
vt 0.139771 0.377921
vt 0.140427 0.375514
vt 0.130710 0.381618
vt 0.130710 0.374293
vt 0.132407 0.375599
vt 0.133059 0.377921
vt 0.132410 0.380232
vt 0.162477 0.374964
vt 0.162477 0.377297
vt 0.161133 0.377297
vt 0.161133 0.374964
vt 0.162477 0.372713
vt 0.161133 0.372713
vt 0.161133 0.370435
vt 0.162477 0.370435
vt 0.161133 0.368161
vt 0.162477 0.368161
vt 0.171759 0.370435
vt 0.170415 0.370435
vt 0.170415 0.368161
vt 0.171759 0.368161
vt 0.171759 0.372713
vt 0.170415 0.372713
vt 0.171759 0.374964
vt 0.170415 0.374964
vt 0.171759 0.377297
vt 0.170415 0.377297
vt 0.106403 0.362782
vt 0.160378 0.362782
vt 0.160378 0.376717
vt 0.106403 0.376717
vt 0.106403 0.349178
vt 0.160378 0.349178
vt 0.106403 0.362782
vt 0.160378 0.362782
vt 0.160378 0.376717
vt 0.106403 0.376717
vt 0.162477 0.378907
vt 0.161133 0.378907
vt 0.160378 0.386470
vt 0.106403 0.386470
vt 0.171759 0.378907
vt 0.170415 0.378907
vt 0.170415 0.366546
vt 0.171759 0.366546
vt 0.160378 0.386470
vt 0.106403 0.386470
vt 0.161133 0.366546
vt 0.162477 0.366546
vt 0.141748 0.372924
vt 0.143325 0.373409
vt 0.143325 0.382384
vt 0.141748 0.382869
vt 0.131196 0.382869
vt 0.129618 0.382384
vt 0.129618 0.373409
vt 0.131196 0.372924
vn -1.0000 -0.0000 0.0000
vn 1.0000 0.0000 -0.0000
vn 0.9508 -0.3097 -0.0000
vn -0.9508 -0.3097 0.0000
vn -0.1806 0.8259 -0.5342
vn -0.1694 0.3411 -0.9246
vn -0.3330 0.3252 -0.8851
vn -0.3544 0.7849 -0.5082
vn -0.1843 0.9829 -0.0000
vn -0.3614 0.9324 -0.0000
vn -0.3544 0.7850 0.5081
vn -0.1806 0.8259 0.5341
vn -0.3330 0.3252 0.8851
vn -0.1694 0.3411 0.9246
vn 0.3545 0.7850 0.5081
vn 0.1806 0.8259 0.5341
vn 0.1694 0.3411 0.9246
vn 0.3330 0.3252 0.8851
vn 0.3614 0.9324 -0.0000
vn 0.1843 0.9829 -0.0000
vn 0.3544 0.7849 -0.5082
vn 0.1806 0.8259 -0.5342
vn 0.3330 0.3252 -0.8851
vn 0.1694 0.3411 -0.9246
vn -0.1486 0.0000 -0.9889
vn -0.2938 0.0000 -0.9559
vn 0.1486 0.0000 -0.9889
vn 0.2938 0.0000 -0.9559
vn 0.1486 0.0000 0.9889
vn 0.2938 0.0000 0.9559
vn -0.1486 0.0000 0.9889
vn -0.2938 0.0000 0.9559
vn -0.0000 -0.6186 -0.7857
vn -0.0000 -0.7199 -0.6941
vn 0.0000 -1.0000 0.0009
vn -0.0000 -1.0000 0.0000
vn 0.0000 -0.4007 -0.9162
vn 0.0000 -0.3871 0.9220
vn -0.0000 -0.6101 0.7923
vn 0.0000 -0.7142 0.6999
usemtl Default_OBJ.001
s off
f 9/1/1 7/2/1 6/3/1 4/4/1 3/5/1 21/6/1 22/7/1
f 19/8/2 17/9/2 15/10/2 11/11/2 14/12/2 26/13/2 25/14/2
f 33/15/3 34/16/3 37/17/3 31/18/3 30/19/3
f 35/20/4 36/21/4 29/22/4 32/23/4 38/24/4
s 1
f 1/25/5 2/26/6 3/27/7 4/28/8
f 5/29/9 6/30/10 7/31/11 8/32/12
f 1/25/5 4/28/8 6/30/10 5/29/9
f 8/32/12 7/31/11 9/33/13 10/34/14
f 11/35/15 12/36/16 13/37/17 14/38/18
f 15/39/19 16/40/20 12/36/16 11/35/15
f 17/41/21 18/42/22 16/40/20 15/39/19
f 19/43/23 20/44/24 18/42/22 17/41/21
f 12/45/16 8/46/12 10/47/14 13/48/17
f 16/49/20 5/50/9 8/46/12 12/45/16
f 18/51/22 1/52/5 5/50/9 16/49/20
f 2/53/6 1/52/5 18/51/22 20/54/24
f 3/27/7 2/26/6 23/55/25 21/56/26
f 23/57/25 2/53/6 20/54/24 24/58/27
f 20/44/24 19/43/23 25/59/28 24/60/27
f 14/38/18 13/37/17 27/61/29 26/62/30
f 13/48/17 10/47/14 28/63/31 27/64/29
f 10/34/14 9/33/13 22/65/32 28/66/31
f 29/22/33 30/19/34 31/18/35 32/23/35
f 28/67/36 22/68/36 33/15/36
f 22/68/36 21/69/36 34/16/36 33/15/36
f 21/69/36 23/70/36 34/16/36
f 34/16/36 23/70/36 24/71/36 35/20/36
f 24/71/36 25/72/36 35/20/36
f 25/72/36 26/73/36 36/21/36 35/20/36
f 26/73/36 27/74/36 36/21/36
f 36/21/36 27/74/36 28/67/36 33/15/36
f 33/15/37 30/19/34 29/22/33
f 34/16/38 38/24/39 37/17/40
f 38/24/39 34/16/38 35/20/38
f 29/22/33 36/21/37 33/15/37
f 32/23/35 31/18/35 37/17/40 38/24/39
