# Blender v2.90.1 OBJ File: ''
# www.blender.org
mtllib Treasure_Chest_Base_03.mtl
o Treasure_Chest_Base_02
v -0.109715 0.516975 -0.393169
v 0.109708 0.516975 -0.393169
v -0.109715 0.330397 -0.393169
v 0.109708 0.330397 -0.393169
v 0.061863 0.285938 -0.393169
v -0.061870 0.285938 -0.393169
v -0.069176 0.273913 -0.312202
v -0.122671 0.321396 -0.312202
v 0.122664 0.321396 -0.312202
v 0.122664 0.530008 -0.312202
v -0.122671 0.530008 -0.312202
v 0.069168 0.273913 -0.312202
v -0.444330 0.440425 0.298691
v -0.444332 0.440425 -0.283180
v -0.444332 -0.002129 -0.283180
v -0.444330 -0.002129 0.298691
v -0.342066 0.440425 -0.314617
v -0.342066 -0.002129 -0.314617
v 0.444330 0.440425 -0.283180
v 0.444332 0.440425 0.298691
v 0.444332 -0.002129 0.298691
v 0.444330 -0.002129 -0.283180
v -0.342062 0.440425 0.330128
v -0.342062 -0.002129 0.330128
v 0.342062 0.440425 -0.314617
v 0.342062 -0.002129 -0.314617
v 0.342065 -0.002129 0.330128
v 0.342065 0.440425 0.330128
v -0.378383 0.056993 0.255510
v 0.378385 0.056993 0.255510
v 0.378383 0.056993 -0.240000
v -0.378385 0.056993 -0.240000
v 0.378385 0.440425 0.255510
v -0.378383 0.440425 0.255510
v 0.378383 0.440425 -0.240000
v -0.378385 0.440425 -0.240000
v -0.339799 0.484896 0.361456
v -0.339799 0.441885 0.393167
v -0.122690 0.441885 0.393167
v -0.122690 0.484896 0.361456
v -0.339799 0.398434 0.362061
v -0.122690 0.398434 0.362061
v -0.339799 0.414593 0.311123
v -0.122690 0.414593 0.311123
v -0.339799 0.468029 0.310751
v -0.122690 0.468029 0.310751
v 0.121628 0.484896 0.361456
v 0.121628 0.441885 0.393167
v 0.338737 0.441885 0.393167
v 0.338737 0.484896 0.361456
v 0.121628 0.398434 0.362061
v 0.338737 0.398434 0.362061
v 0.121628 0.414593 0.311123
v 0.338737 0.414593 0.311123
v 0.121628 0.468029 0.310751
v 0.338737 0.468029 0.310751
v -0.444330 0.305313 0.298691
v -0.444332 0.305313 -0.283180
v -0.342066 0.305313 -0.314617
v 0.444330 0.305313 -0.283180
v 0.444332 0.305313 0.298691
v -0.342062 0.305313 0.330128
v 0.342062 0.305313 -0.314617
v 0.342065 0.305313 0.330128
vt 0.310641 0.156194
vt 0.310641 0.165262
vt 0.321305 0.156194
vt 0.321305 0.165262
vt 0.312967 0.167326
vt 0.318980 0.167326
vt 0.172624 0.387529
vt 0.095635 0.387529
vt 0.095635 0.348857
vt 0.172624 0.348857
vt 0.170551 0.375715
vt 0.162494 0.375715
vt 0.162494 0.355056
vt 0.170551 0.355056
vt 0.095635 0.387529
vt 0.172624 0.387529
vt 0.172624 0.348857
vt 0.095635 0.348857
vt 0.105753 0.374362
vt 0.098092 0.374362
vt 0.098092 0.351110
vt 0.105753 0.351110
vt 0.126428 0.382241
vt 0.125080 0.382241
vt 0.125080 0.374600
vt 0.126428 0.374600
vt 0.104935 0.375715
vt 0.096907 0.375715
vt 0.096907 0.355056
vt 0.104935 0.355056
vt 0.136793 0.382241
vt 0.135473 0.382241
vt 0.135473 0.374600
vt 0.136793 0.374600
vt 0.170305 0.374362
vt 0.162616 0.374362
vt 0.162616 0.351110
vt 0.170305 0.351110
vt 0.154745 0.398407
vt 0.154686 0.391500
vt 0.156024 0.392140
vt 0.156036 0.397689
vt 0.170314 0.373926
vt 0.160692 0.373926
vt 0.160692 0.369576
vt 0.170314 0.369576
vt 0.170703 0.359307
vt 0.170703 0.373998
vt 0.161083 0.373998
vt 0.161083 0.359307
vt 0.133505 0.399046
vt 0.127482 0.399046
vt 0.127231 0.398394
vt 0.133806 0.398394
vt 0.126655 0.398771
vt 0.126655 0.393756
vt 0.127231 0.394133
vt 0.127548 0.393449
vt 0.133505 0.393449
vt 0.133806 0.394133
vt 0.134365 0.393839
vt 0.134365 0.398771
vt 0.099673 0.370457
vt 0.099116 0.373365
vt 0.095891 0.378270
vt 0.095891 0.366666
vt 0.101269 0.373585
vt 0.105051 0.377376
vt 0.101826 0.370677
vt 0.105051 0.365772
vt 0.309882 0.161474
vt 0.309882 0.164649
vt 0.322455 0.164649
vt 0.322455 0.161474
vt 0.309882 0.167824
vt 0.322455 0.167824
vt 0.309882 0.170998
vt 0.322455 0.170998
vt 0.309882 0.155125
vt 0.309882 0.158300
vt 0.322455 0.158300
vt 0.322455 0.155126
vt 0.321068 0.165636
vt 0.321091 0.163174
vt 0.318757 0.162392
vt 0.318720 0.166375
vt 0.317291 0.164370
vt 0.318720 0.166375
vt 0.317291 0.164370
vt 0.321068 0.165636
vt 0.318757 0.162392
vt 0.321091 0.163174
vt 0.309882 0.161474
vt 0.309882 0.164649
vt 0.322455 0.164649
vt 0.322455 0.161474
vt 0.309882 0.167824
vt 0.322455 0.167824
vt 0.309882 0.170998
vt 0.322455 0.170998
vt 0.309882 0.155125
vt 0.309882 0.158300
vt 0.322455 0.158300
vt 0.322455 0.155126
vt 0.321068 0.165636
vt 0.321091 0.163174
vt 0.318757 0.162392
vt 0.318720 0.166375
vt 0.317291 0.164370
vt 0.318720 0.166375
vt 0.317291 0.164370
vt 0.321068 0.165636
vt 0.318757 0.162392
vt 0.321091 0.163174
vt 0.160679 0.398074
vt 0.160657 0.392206
vt 0.162043 0.391434
vt 0.162043 0.398764
vt 0.162314 0.379641
vt 0.162314 0.359902
vt 0.171184 0.359902
vt 0.171184 0.379641
vt 0.160191 0.398853
vt 0.161149 0.399979
vt 0.156431 0.398363
vt 0.155675 0.399518
vt 0.160268 0.391474
vt 0.161034 0.390239
vt 0.156475 0.391314
vt 0.155487 0.390271
vt 0.323431 0.169505
vt 0.309429 0.169505
vt 0.323431 0.157599
vt 0.309429 0.157599
vt 0.312482 0.154761
vt 0.320378 0.154761
vt 0.345823 0.135154
vt 0.347320 0.132446
vt 0.347812 0.137002
vt 0.350467 0.135238
vt 0.338691 0.137002
vt 0.338691 0.144759
vt 0.336036 0.135238
vt 0.336036 0.147509
vt 0.347812 0.144759
vt 0.350467 0.147509
vt 0.339183 0.132446
vt 0.340680 0.135154
vn 0.0000 -0.0000 1.0000
vn -1.0000 0.0000 0.0000
vn -0.2938 0.0000 -0.9559
vn 1.0000 0.0000 -0.0000
vn -0.2938 -0.0000 0.9559
vn 0.0000 -1.0000 -0.0000
vn 0.2938 0.0000 -0.9559
vn 0.2938 -0.0000 0.9559
vn 0.0000 0.0000 -1.0000
vn 0.0000 1.0000 0.0000
vn 0.0000 0.9532 0.3024
vn 0.0000 0.0070 1.0000
vn -0.0003 0.0070 1.0000
vn 0.0000 -0.9489 0.3157
vn 0.0000 -0.9489 0.3156
vn 0.0000 -0.5934 -0.8049
vn 0.0000 0.5821 -0.8131
vn 0.0002 0.0070 1.0000
vn -0.6104 0.6103 -0.5050
vn 0.5954 0.2977 -0.7462
vn -0.4381 -0.2762 -0.8554
vn 0.6227 -0.3926 -0.6769
vn 0.1806 -0.7269 -0.6626
vn -0.2969 -0.7572 -0.5817
vn -0.3541 -0.9190 -0.1733
vn -0.9471 -0.2649 -0.1810
vn 0.9471 -0.2649 -0.1810
vn 0.4372 0.8743 -0.2107
vn -0.6894 0.6897 -0.2213
vn 0.4683 -0.8656 -0.1772
usemtl Default_OBJ
s off
f 11/1/1 8/2/1 10/3/1
f 10/3/1 8/2/1 9/4/1
f 8/2/1 7/5/1 9/4/1
f 7/5/1 12/6/1 9/4/1
f 57/7/2 58/8/2 15/9/2 16/10/2
f 58/11/3 59/12/3 18/13/3 15/14/3
f 60/15/4 61/16/4 21/17/4 22/18/4
f 62/19/5 57/20/5 16/21/5 24/22/5
f 24/23/6 16/24/6 15/25/6 18/26/6
f 63/27/7 60/28/7 22/29/7 26/30/7
f 21/31/6 27/32/6 26/33/6 22/34/6
f 61/35/8 64/36/8 27/37/8 21/38/8
f 63/39/9 59/40/9 17/41/9 25/42/9
f 24/23/6 18/26/6 26/33/6 27/32/6
f 64/43/1 62/44/1 24/45/1 27/46/1
f 29/47/10 30/48/10 31/49/10 32/50/10
f 23/51/10 28/52/10 33/53/10 34/54/10
f 28/52/10 20/55/10 33/53/10
f 20/55/10 19/56/10 35/57/10 33/53/10
f 19/56/10 25/58/10 35/57/10
f 25/58/10 17/59/10 36/60/10 35/57/10
f 17/59/10 14/61/10 36/60/10
f 14/61/10 13/62/10 34/54/10 36/60/10
f 13/62/10 23/51/10 34/54/10
f 34/63/9 33/64/9 30/65/9 29/66/9
f 33/64/2 35/67/2 31/68/2 30/65/2
f 35/67/1 36/69/1 32/70/1 31/68/1
f 36/69/4 34/63/4 29/66/4 32/70/4
f 37/71/11 38/72/12 39/73/13 40/74/11
f 38/72/12 41/75/14 42/76/14 39/73/12
f 41/75/15 43/77/16 44/78/16 42/76/15
f 43/79/16 45/80/17 46/81/17 44/82/16
f 45/80/17 37/71/11 40/74/11 46/81/17
f 38/83/2 37/84/2 45/85/2
f 41/86/2 38/83/2 45/85/2
f 43/87/2 41/86/2 45/85/2
f 42/88/4 44/89/4 39/90/4
f 44/89/4 46/91/4 39/90/4
f 46/91/4 40/92/4 39/90/4
f 47/93/11 48/94/12 49/95/12 50/96/11
f 48/94/18 51/97/14 52/98/14 49/95/12
f 51/97/15 53/99/16 54/100/16 52/98/15
f 53/101/16 55/102/17 56/103/17 54/104/16
f 55/102/17 47/93/11 50/96/11 56/103/17
f 48/105/2 47/106/2 55/107/2
f 51/108/2 48/105/2 55/107/2
f 53/109/2 51/108/2 55/107/2
f 52/110/4 54/111/4 49/112/4
f 54/111/4 56/113/4 49/112/4
f 56/113/4 50/114/4 49/112/4
f 28/115/1 23/116/1 62/117/1 64/118/1
f 26/119/9 18/120/9 59/121/9 63/122/9
f 20/123/8 28/115/8 64/118/8 61/124/8
f 25/42/7 19/125/7 60/126/7 63/39/7
f 23/116/5 13/127/5 57/128/5 62/117/5
f 19/125/4 20/123/4 61/124/4 60/126/4
f 14/129/3 17/41/3 59/40/3 58/130/3
f 13/127/2 14/129/2 58/130/2 57/128/2
s 1
f 1/131/19 2/132/20 3/133/21
f 2/132/20 4/134/22 3/133/21
f 4/134/22 5/135/23 3/133/21
f 5/135/23 6/136/24 3/133/21
f 6/137/24 7/138/25 3/139/21
f 3/139/21 7/138/25 8/140/26
f 4/141/22 2/142/20 9/143/27
f 9/143/27 2/142/20 10/144/28
f 3/139/21 8/140/26 1/145/19
f 1/145/19 8/140/26 11/146/29
f 2/142/20 1/145/19 10/144/28
f 10/144/28 1/145/19 11/146/29
f 12/147/30 7/138/25 5/148/23
f 5/148/23 7/138/25 6/137/24
f 5/148/23 4/141/22 12/147/30
f 12/147/30 4/141/22 9/143/27
